<?xml version="1.0" encoding="UTF-8"?>
<!DOCTYPE svg PUBLIC "-//W3C//DTD SVG 1.1//EN" "http://www.w3.org/Graphics/SVG/1.1/DTD/svg11.dtd">
<svg xmlns="http://www.w3.org/2000/svg" version="1.1" width="1022px" height="671px" style="shape-rendering:geometricPrecision; text-rendering:geometricPrecision; image-rendering:optimizeQuality; fill-rule:evenodd; clip-rule:evenodd" xmlns:xlink="http://www.w3.org/1999/xlink">
<g><path style="opacity:0.992" fill="#0082c9" d="M 1021.5,221.5 C 1021.5,229.167 1021.5,236.833 1021.5,244.5C 1012.91,312.259 976.245,357.092 911.5,379C 848.622,393.917 795.789,377.417 753,329.5C 746.244,320.573 740.078,311.24 734.5,301.5C 703.417,390.419 641.751,444.252 549.5,463C 454.59,474.602 378.423,442.436 321,366.5C 306.969,345.77 296.136,323.437 288.5,299.5C 252.156,364.505 196.823,392.005 122.5,382C 55.2674,365.1 15.1008,322.6 2,254.5C -4.17713,183.676 23.6562,131.176 85.5,97C 145.355,71.0902 200.688,78.4236 251.5,119C 266.743,132.902 278.909,149.068 288,167.5C 318.399,78.4321 379.566,23.9321 471.5,4C 565.684,-8.73671 641.85,22.0966 700,96.5C 715.097,117.693 726.763,140.693 735,165.5C 763.98,112.158 808.98,84.1575 870,81.5C 937.968,85.1653 985.301,118.165 1012,180.5C 1016.89,193.909 1020.06,207.576 1021.5,221.5 Z M 496.5,90.5 C 558.089,87.0401 604.922,111.373 637,163.5C 657.666,204.124 659.999,245.79 644,288.5C 615.554,348.322 568.054,377.489 501.5,376C 440.389,369.212 398.722,337.212 376.5,280C 359.142,221.096 372.142,170.096 415.5,127C 438.829,106.668 465.829,94.5017 496.5,90.5 Z M 143.5,171.5 C 180.916,170.112 204.083,187.446 213,223.5C 215.676,258.001 200.842,281.168 168.5,293C 139.146,299.233 115.979,290.066 99,265.5C 84.4484,236.526 88.2817,210.36 110.5,187C 120.297,179.099 131.297,173.933 143.5,171.5 Z M 861.5,171.5 C 898.916,170.112 922.083,187.446 931,223.5C 933.676,258.001 918.842,281.168 886.5,293C 857.146,299.233 833.979,290.066 817,265.5C 802.188,235.912 806.354,209.412 829.5,186C 839.131,178.681 849.798,173.847 861.5,171.5 Z"/></g>
<g><path style="opacity:0.94" fill="#0082c9" d="M 137.5,535.5 C 153.358,533.504 168.025,536.67 181.5,545C 188.154,550.32 192.321,557.153 194,565.5C 194.667,598.833 194.667,632.167 194,665.5C 190.817,667.523 187.317,668.023 183.5,667C 183,666.5 182.5,666 182,665.5C 181.972,632.119 181.305,598.786 180,565.5C 175.502,556.685 168.335,551.185 158.5,549C 144.958,546.028 132.791,548.861 122,557.5C 119.938,559.901 118.271,562.567 117,565.5C 115.695,598.786 115.028,632.119 115,665.5C 113.352,667.028 111.352,667.695 109,667.5C 106.648,667.695 104.648,667.028 103,665.5C 102.027,630.786 102.36,596.119 104,561.5C 108.141,550.692 115.641,543.192 126.5,539C 130.333,537.966 133.999,536.8 137.5,535.5 Z"/></g>
<g><path style="opacity:0.931" fill="#0082c9" d="M 906.5,536.5 C 911.032,536.074 915.199,537.074 919,539.5C 919.667,581.167 919.667,622.833 919,664.5C 915.583,668.146 911.749,668.479 907.5,665.5C 906.732,661.555 906.232,657.555 906,653.5C 894.389,668.117 879.556,672.617 861.5,667C 848.566,661.652 840.4,652.152 837,638.5C 831.756,619.532 834.423,601.866 845,585.5C 860.372,570.465 877.539,567.965 896.5,578C 899.704,580.869 902.537,584.035 905,587.5C 905.181,570.426 905.681,553.426 906.5,536.5 Z M 870.5,584.5 C 890.003,583.161 901.503,592.161 905,611.5C 908.237,627.705 904.071,641.539 892.5,653C 876.432,661.518 863.265,658.351 853,643.5C 844.227,624.777 846.06,607.277 858.5,591C 862.2,588.098 866.2,585.932 870.5,584.5 Z"/></g>
<g><path style="opacity:0.936" fill="#0081c8" d="M 578.5,537.5 C 581.85,537.335 585.183,537.502 588.5,538C 590.333,538.5 591.5,539.667 592,541.5C 592.333,577.5 592.667,613.5 593,649.5C 595.168,654.346 599.001,656.846 604.5,657C 607.951,667.426 604.284,671.092 593.5,668C 586.333,666.167 581.833,661.667 580,654.5C 578.549,615.528 578.049,576.528 578.5,537.5 Z"/></g>
<g><path style="opacity:0.937" fill="#0082c9" d="M 428.5,548.5 C 432.106,548.211 435.606,548.544 439,549.5C 439.5,557.827 439.666,566.16 439.5,574.5C 446.508,574.334 453.508,574.5 460.5,575C 464,578.004 464.333,581.337 461.5,585C 454.174,585.5 446.841,585.666 439.5,585.5C 439.066,604.214 439.566,622.88 441,641.5C 442.511,647.365 446.011,651.532 451.5,654C 455.847,654.692 460.014,655.858 464,657.5C 464.667,660.5 464.667,663.5 464,666.5C 443.631,670.139 431.298,661.806 427,641.5C 426.333,611.167 426.333,580.833 427,550.5C 427.717,549.956 428.217,549.289 428.5,548.5 Z"/></g>
<g><path style="opacity:0.937" fill="#0082c9" d="M 256.5,571.5 C 280.46,570.318 294.96,581.318 300,604.5C 300.667,609.5 300.667,614.5 300,619.5C 299.5,620 299,620.5 298.5,621C 275.502,621.5 252.502,621.667 229.5,621.5C 232.071,646.907 246.071,658.74 271.5,657C 278.652,654.838 285.485,652.004 292,648.5C 293.107,648.585 294.107,648.919 295,649.5C 296.885,651.914 297.552,654.581 297,657.5C 287.589,665.639 276.589,669.639 264,669.5C 229.612,666.105 213.612,647.105 216,612.5C 219.688,588.979 233.188,575.313 256.5,571.5 Z M 254.5,583.5 C 274.549,582.182 285.216,591.516 286.5,611.5C 267.833,611.5 249.167,611.5 230.5,611.5C 232.443,596.896 240.443,587.563 254.5,583.5 Z"/></g>
<g><path style="opacity:0.939" fill="#0082c9" d="M 525.5,670.5 C 524.167,670.5 522.833,670.5 521.5,670.5C 491.936,667.601 476.27,651.268 474.5,621.5C 476.048,590.437 492.381,573.77 523.5,571.5C 535.784,571.732 546.617,575.732 556,583.5C 556.836,587.354 555.669,590.521 552.5,593C 550.833,593.667 549.167,593.667 547.5,593C 532.948,582.452 517.948,581.786 502.5,591C 489.663,602.521 485.496,616.688 490,633.5C 497.73,651.282 511.23,659.115 530.5,657C 537.749,655.875 544.082,652.875 549.5,648C 554.854,646.342 557.854,648.342 558.5,654C 557.917,656.499 556.584,658.499 554.5,660C 545.548,665.814 535.882,669.314 525.5,670.5 Z"/></g>
<g><path style="opacity:0.944" fill="#0082c9" d="M 660.5,571.5 C 684.687,570.498 701.854,580.831 712,602.5C 719.711,627.703 712.877,647.87 691.5,663C 664.845,675.405 642.345,670.238 624,647.5C 611.141,622.952 614.641,601.119 634.5,582C 642.455,576.515 651.122,573.015 660.5,571.5 Z M 658.5,584.5 C 689.189,584.02 703.022,599.02 700,629.5C 694,649.748 680.5,658.914 659.5,657C 637.916,650.055 628.416,635.221 631,612.5C 635.016,597.985 644.183,588.652 658.5,584.5 Z"/></g>
<g><path style="opacity:0.942" fill="#0182c9" d="M 324.5,573.5 C 326.591,573.318 328.591,573.652 330.5,574.5C 340.529,586.192 350.529,597.858 360.5,609.5C 370.618,597.544 380.951,585.711 391.5,574C 399.565,573.391 402.398,576.891 400,584.5C 390.021,596.647 379.854,608.647 369.5,620.5C 379.811,633.312 390.311,645.979 401,658.5C 401.484,663.873 398.984,667.207 393.5,668.5C 392.5,668 391.5,667.5 390.5,667C 380.658,654.995 370.658,643.162 360.5,631.5C 350.312,643.187 340.312,655.02 330.5,667C 326.732,668.967 323.565,668.134 321,664.5C 319.699,662.635 319.365,660.635 320,658.5C 330.689,645.979 341.189,633.312 351.5,620.5C 341.571,608.314 331.404,596.314 321,584.5C 319.699,582.635 319.365,580.635 320,578.5C 321.634,576.938 323.134,575.271 324.5,573.5 Z"/></g>
<g><path style="opacity:0.95" fill="#0082c9" d="M 737.5,573.5 C 740.93,573.107 744.096,573.773 747,575.5C 747.333,576.5 747.667,577.5 748,578.5C 748.034,599.231 748.701,619.898 750,640.5C 756.803,653.816 767.636,658.983 782.5,656C 790.841,653.659 796.674,648.493 800,640.5C 801.288,619.551 801.954,598.551 802,577.5C 802.5,575.667 803.667,574.5 805.5,574C 808.531,573.505 811.531,573.671 814.5,574.5C 815.63,594.136 815.797,613.802 815,633.5C 813.158,658 799.825,670 775,669.5C 761.981,670.153 750.981,665.819 742,656.5C 737.706,650.908 735.373,644.575 735,637.5C 734.333,617.5 734.333,597.5 735,577.5C 735.48,575.867 736.313,574.534 737.5,573.5 Z"/></g>
</svg>
